/* XPM */
static char *qps_tmp[] = {
/* columns rows colors chars-per-pixel */
"128 128 87 1 ",
"  c #333537",
". c #343739",
"X c #36393C",
"o c #383C3F",
"O c #343C44",
"+ c #3B3E41",
"@ c #323E4A",
"# c #3E4144",
"$ c #34414D",
"% c #3A444D",
"& c #2F4052",
"* c #2F4359",
"= c #344352",
"- c #3A4752",
"; c #3A4855",
": c #32475B",
"> c #34485C",
", c #384B5C",
"< c #2F4760",
"1 c #2F4E6C",
"2 c #334B63",
"3 c #384E61",
"4 c #324F6B",
"5 c #34516D",
"6 c #2D4E71",
"7 c #2F5173",
"8 c #325475",
"9 c #325679",
"0 c #365878",
"q c #404447",
"w c #414548",
"e c #2E5983",
"r c #2E5D8C",
"t c #345C82",
"y c #2B5D90",
"u c #33618B",
"i c #2E6195",
"p c #2B639D",
"a c #326494",
"s c #32679A",
"d c #31699E",
"f c #2B66A3",
"g c #2D69A4",
"h c #2766A9",
"j c #2769AE",
"k c #2B6BAB",
"l c #316EA9",
"z c #326BA3",
"x c #276AB1",
"c c #286EB5",
"v c #256EBA",
"b c #2D72B6",
"n c #2B72BA",
"m c #3073B3",
"M c #1B69C7",
"N c #1C6DCC",
"B c #1C70CF",
"V c #1D73D3",
"C c #1F77D8",
"Z c #1F79DB",
"A c #2774C2",
"S c #2976C2",
"D c #2E7AC2",
"F c #2576CA",
"G c #2877C8",
"H c #2679CE",
"J c #2B7BC9",
"K c #267CD4",
"L c #287ED4",
"P c #207BDE",
"I c #217EE1",
"U c #2D80CE",
"Y c #2C82D3",
"T c #2681DC",
"R c #2B85DB",
"E c #2281E5",
"W c #2A89E4",
"Q c #2385EA",
"! c #2489EE",
"~ c #2A8CEA",
"^ c #258CF3",
"/ c #288DF0",
"( c #2690F7",
") c #2992F6",
"_ c #2792FA",
"` c #2896FF",
"' c None",
/* pixels */
"''''''''''''''''''''''''''''''''''''''''''''''''''''''''''''''''''''''''''''''''''''''''''''''''''''''''''''''''''''''''''''''''",
"''''''''''''''''''''''''''''''''''''''''''''''''''''''''''''''''''''''''''''''''''''''''''''''''''''''''''''''''''''''''''''''''",
"''''''''''''''''''''''''''''''''''''''''''''''''''''''''''''''''''''''''''''''''''''''''''''''''''''''''''''''''''''''''''''''''",
"''''''''''''''''''''''''''''''''''''''''''''''''''''''''''''''''''''''''''''''''''''''''''''''''''''''''''''''''''''''''''''''''",
"''''''''''''''''''''''''''''''''''''''''''''''''''''''''''''''''''''''''''''''''''''''''''''''''''''''''''''''''''''''''''''''''",
"''''''''''''''''''''''''''''''''''''''''''''''''''''''''''''''''''''''''''''''''''''''''''''''''''''''''''''''''''''''''''''''''",
"''''''''''''''''''''''''''''''''''''''''''''''''''''''''''''''''''''''''''''''''''''''''''''''''''''''''''''''''''''''''''''''''",
"''''''''''''''''''''''''''''''''''''''''''''''''''''''''''''''''''''''''''''''''''''''''''''''''''''''''''''''''''''''''''''''''",
"''''''''''''''''''''''''''''''''''''''''''''''''''''''''''''''''''''''''''''''''''''''''''''''''''''''''''''''''''''''''''''''''",
"''''''''''''''''''''''''''''''''''''''''''''''''''''''''''''''''''''''''''''''''''''''''''''''''''''''''''''''''''''''''''''''''",
"''''''''''''''''''''''''''''''''''''''''''''''''''''''''''''''''''''''''''''''''''''''''''''''''''''''''''''''''''''''''''''''''",
"''''''''''''''''''''''''''''''''''''''''''''''''''''''''''''''''''''''''''''''''''''''''''''''''''''''''''''''''''''''''''''''''",
"''''''''''''''''''''''''''''''''''''''''''''''''''''''''''''''''''''''''''''''''''''''''''''''''''''''''''''''''''''''''''''''''",
"''''''''''''''''''''''''''''''''''''''''''''''''''''''''''''''''''''''''''''''''''''''''''''''''''''''''''''''''''''''''''''''''",
"''''''''''''''''''''''''''''''''''''''''''''''''''''''''''''''''''''''''''''''''''''''''''''''''''''''''''''''''''''''''''''''''",
"''''''''''''''''''''''''''''''''''''''''''''''''''''''''''''''''''''''''''''''''''''''''''''''''''''''''''''''''''''''''''''''''",
"''wwwwwwwwwwwwwwwwwwwwwwwwwwwwwwwwwwwwwwwwwwwwwwwwwwwwwwwwwwwwwwwwwwwwwwwwwwwwwwwwwwwwwwwwwwwwwwwwwwwwwwwwwwwwwwwwwwwwwwwwwwww''",
"'wwwwwwwwwwwwwwwwwwwwwwwwwwwwwwwwwwwwwwwwwwwwwwwwwwwwwwwwwwwwwwwwwwwwwwwwwwwwwwwwwwwwwwwwwwwwwwwwwwwwwwwwwwwwwwwwwwwwwwwwwwwwww'",
"wwwwwwwwwwwwwww#wwwwwwwwwwwwwwwwwwwwwwwwwwwwwwwwwwwwwww#wwwwww#wwwwwwwwwwww#wwwwwwwwwwwwwww#wwwwwwwwwwwwwwwwwwwwwwwwwwwwwwwwwwww",
"wwwwwwwwwwwwwwwwwwwwwww#wwwwwwwwwww#wwwwwwwwwwwwwwwwwwwwwwwwwwwwwwwwwwwwwwwwwwwwwwwwwwwwwwwwwwwwwwwwwwwwwwwwwwwwwwwwwww#wwwwwwww",
"wwwwwwwwwwwwwwwwwwwwwwwwwwwwwwwwwwwwwwwwwwwwwww#wwwwwwwwwwwwwwwwwwwwwwwwwwwwqwwwwwwwwwwwwwwwwwwwwwwww#wwwwwwqwwqwwwwwwwww#wwwwww",
"wwwwwwwwwwwwwwwqwwwwwqwwwwwwwwwwwwwwwqwwwwwwwwwwwwwwwwwwwwwwwwwwwwwwwwwwwwwwwwwwwwwwwwwwwwwwwqwwwwwwwwwwwwwwwwwwwwwwwwwwwwwwwwww",
"#ww#w##ww#ww#wqqwqqw##ww#ww##www#ww##wqqwww##wwww#www##wwwwww#qq#ww##www#ww##wqq#ww#wwww#ww##wqqw#wwww#ww#wwwwqqwww##wwww##wwwww",
"ww#w#www#wwwwqqqqqw#ww#w#w#wwwwww#www#wqwwwww##w#wwww#ww##www#wqw#w#wwwww#www#qqw#w#wwwww#www#wqwww##ww#www##wqqwwwww##wwwww##ww",
"w#ww#wqqwqqqqqqwqqqqwq#ww#w#wqqwqqqqqqqqqqqqqw#wwww#wqqw#wwwqqqqww#www#wwwqqw#wqww#ww#wqqqqqqqwq#ww#wqqwqqwqqqwqqqqqqw#w#ww#ww#w",
"#w#wqqqqqwqqqqqqqqqqqqqqwwqwqqq#qwqqqqqqqqqqqqqqw#ww#wq#ww#qqqqq#ww##ww##qqqqqqq#ww#w#qqqqqqqw#qw#w#qqq#qw#qqqqqqqqqqqqww#w#qqq#",
"ww##w#####w###q####w###w#w###w#qw####q#q#q#w###w#####w#q##w###ww#####w#ww###w##w#####ww#q#########ww#w#qw####qq####w######ww##q#",
"###w#q#qw##q#q#wqq#w#q#w##w###q###ww#qq#q##w#q#w#ww#q#q#w####q##ww#w#w###q#q#w##ww#ww####q#qw#www#####q###wwq##q#qq#qqw##w##ww#q",
"#qw#q#q##w###qw##q#q#w##w##wwqq##w###qw##q#qw####qw##q#w##www######w##w##ww##ww###w##w#ww#q#w#q##q##w#q##w###qw#q#qqw##qw##w##w#",
"q##w#q#qq##qq##qq#q#q##q#q#####qq##qq##qq#q##ww#q##wq###w########w#w#w#wq##q###q#q##q##w#q#w#q#wq#ww#q#qq##qq##w#qq###w##q###qq#",
"#####q##w#####q#####################################q###w#####################q####w################q################w##########",
"####################w#######w###w#####q##################################################################w################w#####",
"#############################################################################q##########################q#######################",
"###########################################################################+############################+#######################",
"#####+#+#####+########+#######+#+##########+#########+###########+###########+#+#########+##########+#####+##+###########+######",
"###########+####+#########+#+#######o#######+####+#########+##+######+###########+##+########+#####################+#+#########+",
"##################++#####+###++##########################+############+#######################+#########q##q#q###+##############",
"#++##+#++#+#+##+#+##+#+#+##++####++##++##++##+#++#+#++#++##++++#+##+###++#+++#+#+##+#++++##+###++#+++##++#+++++#+##+#++##+#++++#",
"+##+#+###+#+##+####+#+#+#+####+#####++#++####++##++###+##+####+###+##+#++###+#+###+####++#+##+#+#+###++##+q+#++###+#+#+++#+#+##+",
"#++#+#+#+#+#++#++#+#+#+#+##++##+++o###+##+o#+##+#+#+#+##+##+#+#+++#++#+##+#+#+##++#++#+##+#++#+#+#+#+##++#+#+##++##+#+###+#+##+#",
"+##++++++##+++#+++#++##+#++#q--;;-##+###+#+#++#++#+#+++++#++##o#+++++++#+#++++++++++#+#+++++#++#++#+++##+#++++###+#+++++++#++++#",
"++++##+#++o##+++#++##+#++-0dmUYWWRDl0-+++++##++#+++++##+#o##oo##+##+q+#++++#+##++##+++#+#+#+++++#++++#++++#++#++++++#+#+#+++q+#+",
"#++#++++++#+#+q+#+#++##3dY)`````````)Rz3+++#+#+#+#++++++++#o###o++++##+++#++++++++++++++++#+#+##++#+++++#++++++#+##++++++++++#++",
"++++#+++#+++++++++++o#aW```````````````Wuq+++++++#+#+##+#+#o#o#o+##+++++++#++##+#+#+#+#+#+++++++#+#++#+++++#+#++++++#++++#+#++++",
"+#+++++++++++++++++#3D``````````````````)m-#++++++++#o+#++++o#o#++++++++++++++O++++++++++++++++++++++++++++++++++++++++++++++#++",
"++++++++++++++++++o3U`````````````````````n;o+++++++o#ooo+++#o#o++++++++++++++++++++++++#o+++++o++++++++++++++++++++++++++++++++",
"+++++++++++++++++o3Y```````````````````````U-+++#o+++++O++++o#+o++++++++++++++++++++++++++++++o#++++++++++++++++++++++++++++++++",
"+++++++++++++++++-D`````````````````````````m#o+o#o+++++++++++++++++++++++++++++++++++++++++++#o++++++++++++++O+++++++++++++++++",
"+++++++X+o#o+o+o#d```````````````````````````s++++o+oo+ooo++o+++++++X++++++X+X++o+oo+oo+o#oooo+o#o+oo+o+o+o+++o++++++o+o+oo++o+o",
"++X+X+++ooooo#oo8~```````````````````````````~5o+o+o++o+#oo+o+o++++X+++X+X++++X++o++o++o+o#oo#o#o+o++o+o+o++oo+o+++++oo+o++oo+o+",
"++++X+++#o#oooo%U`````````````````````````````U$o+o+o++ooo++++++X+++X+X++++++o++o++o+o++o#oooo+ooo+oo+++o++o+oo++X++o+++++o+o++o",
"X+X++++Xooo+o#ou)`````````````````````````````_so++o++o+#ooooooo+++X+++++X+Xo+o++o++o+o+oo+oo#o+++o++oo++oo+o+++++XO+o+++o+o++o+",
"+o+XXX+Xoooooo;Y```````````````````````````````~4X+ooooooooo+o+o+XX++XX+oo+ooX+ooo+oooo+oooooo+oooooooooooo++X+oX+++X++Xo+oooooo",
"Xoo+++X+oo+oo+d`````````````````````````````````n%oooo+o+oo+ooooX++XX++Xooooo+oooooo+oooooo+o+oooooooo+ooooooooo+XX++XX+oooooo+o",
"+o+X+X+oo+ooo2~``````````````````````````````````0ooo+oooooooooo+X+++X+++oooooo++ooooooooooooo+o+o+oo+o+oooo+oooX++XX++Xooo+o+oo",
"ooo+X+X+oooool```````````````````````````````````Y%oooooooooooooX++XX++Xoo+X+o+Xooo+ooooo+oooooooooooooooo+oX+o++XX++XX++ooooooo",
"XoX+oooooooX2~```````_```````_``````````````_`````aoooooooooXoo+oooXXoXoXooooooXooXoXoooooXooXoXooooXoXooooooXXoooX+oooooooXoXoo",
"oooXXoXoXoX+m`__```_`__`__`_`__`````_`_`__`_``````R;XooXoXoXoooXXoX++X+oooXoXooooXooooXoXoooooooooooooooXoXoX+oXoXoXXoXooXooooXo",
"ooXoooooooX5~____`_`____`__`_____````__`____`____``doooooooooooo+XoXXo+XXooooooXooooXooooooooXooooooooXo+XX+ooo+X+oooo+XooooXooo",
"XoXXXoXXXX+b_______)______________))___(_`_______(`W3XXXXXXXXXXoXXoXXXXXXoXXXXoXoXXXXoXXXXXXoXXoXXXXXoXXXoXXXXXXXXoXXXXXXXXXXoXX",
"XoXXoXoXXX9(__________________________(`____________bOXXXooXXoXXooXXXXoooXXXXXoXXoXXXooXXXoXoXXXXXXoXXXXoXXXXXXoXoXXXXooXooXooXX",
"XXoXoXXXo$H__(__)____(_(___(^_(_)_(__(__(_(__)(((((_!9XXXXXXXXoXXXXooXXXXXoooXoXXoXoXXXXoXoXXXoXooXXXoXoXXoXooXXXXXooXXXXXXXXXXo",
"ooXXXXXXXi__((_()(__(_(_(_(___^__((((((((_((((_(_(((_J$XoXooooXXXoXooXXXXoXXXoXXXXoXoXXoXoXXXoXoXXoXXXXoXoXoXXoXXXXooXXXoXXoXoXo",
"XXXoXooX>R_^((^_(_(^^_^_((((^__(((((((((((((((((((((((rXXXXXXXXoXXXXXXooXXXoXXXooXXXoXXoXXXoXoXXXoXXooXXXoXXXoXXooXXXXoXoXXoXXXX",
"XXXXXXXOM(((((^(((((^((((((((((^^^^(^(((^((((^^^^^^^^(T:.XXXXXXXXXXXXXXXXXXXXXXXXXXXX.XXX.XXXXXX.XXXXXXX.o.o.oX.XXXXX.XXXXXX.XXX",
"X.XXXXXa^(^^^^(^^^^(((^(^(^^^^^^(^((^(^^((^(^_^^__^_^^^k+XXXXXXXXXXXXXXXXXXXXXXXXXXXXXXXXXXXX.XXXXXXXX.XXXo.o.XXXXXXXXXXXXXXXXXX",
"XXXXXX8W^^^((^^^^^(^^^^^^^^(^^^^^^(^^(^^^^(^^^^^^^^^^(^!e.XXXXXXXXXXXXXXXXXXXX.XXXXXXXXXXXXX.XXXXXXXXXXXXX.o.oXoXXXXXXXXXXXXXXXX",
".XXXX2P^^^^^^^^^^(^^^^^^^^^^^(^^^^^^^^^^^^^^^^^^^^^^^^^^L>.X...XX.XX.X.X..X..X.X.XXX.X.X..XO=251:$O. .XXXX.XX...XX..XX.X.X.XX.X.",
"XX.X2K^^^^^^^^^^^^^^^^^^^^^^^^^^^^^^^!^^^^^^^^^^/^^^^^^^^S=.X.X..X.X.XX..XX.X.XX.X..XX..$7fATWQQEKnr:XXXo...X..X.X.XX.X..XX..X.X",
"...6K^^^^^^^^^^^^^^!!^^!^^!^!^!^^^^^^^^!^^^^^!!^^^!^^!!^^^xO.X.XX.X..X.XXX.X.XX.X.X..X*iHQ^^^^!!^^^!Tk2...o..X..X.X..X.XXX.XX.X.",
".+eK!!Q^!^!^I^^^^!!!^!^!!^!^^^I^!^!!Q^!^!^Q^^^^Q!^^!^^!^!^!g@...X.XXXX.X.XX..X.XXX.o:pK^^^!!!^Q^!!!^^^Tp$..XXXXX.XXXXX.X.XX.XX.X",
":fQ^^!^^!^!!^^^^!^!^^!!^!!!!^^^^!!!!^^Q^Q!^QQ^!^!!!!Q^!!!!^!j@.............X.....X:pK^^!!!!!!!!!!!!!Q!^QG7X... X................",
"KQ!!!!!!^I^^^^^I!!!I^!!I^^II^^^^!!!!!!!!^Q^^Q^^!!!!!!!!!^^!^IM< ...............X<hK!!!!!!!Q^!!!!!!!Q!!Q!!TrO  X....O......X...X.",
"Q^!!!!!!^^^I^I^^!!!!^!^^^I^^^II^!!!!!!!!Q^QQQQQQ!!!!Q!Q!^II^!^Ky@.......... .O1kZ!^!Q!!!Q!!!Q!!!!!Q!!!!!!!Ep$ ..................",
"QQ!!!!!Q^I^I^^III!I!^II^^^^^^^I^!!!^QQQ!!QQQ!!Q^!Q!!QQ!Q^^!^!!!QFp1$OO.O+O@1yAE!!!!QQQQQQQQQ!QQQQ!!QQQQQQQQQk&  ................",
"QQQ!Q!QQ^I^^I^^!^!^!^^I^I^III^^II!!I!!^IQQQQQQQQQQQQQQQQI^IIQQQQ!QTHvhyfhcHIQ!QQQQQQQ!Q!Q!QQQQQQQQQQQQQQQQQQQc$ ................",
"EQQQQQQQ^I^I^I^I^I^II^I^^^I^I^I^!^I!Q!I^QQQQQQQQQQQQQQQQI^I^^I^IQQQQQ!QQQQQQQQQQQQQQQQQQQQQQQQQ!QQQQQQQQQQQEQQj$.    .  .   ....",
"EQQQQQQQI^I^I^I^I^I^I^^II^^I^I^III!!I!!IQQQQWQQQQQQQQQQ!^I^II^I^QQQQQQQQQQQQQQQQEQQQIQQQQQQQQEQIQQEQQQQQQQQQQQQhO O  . O  O...  ",
"EWQQQEEQ^II^^I^I^I^II^II^IIII^I^!I!I!!I!QQQQQQQEEQQEQQEQI^^II^^IEQEQEQEQQEQQQQQEQQEQQQQEEQIQQQQQQQQQEQQEEQEQEEQEh@ .O    .  . . ",
"EEEQQQQEI^II^III^III^II^II^^II^II!!III!IEQEEQIQEQEEQEEQE^II^IIIIQEQEQEQEEEEEEEQEEEQQIQQQIQEEQIQIEEEEEEEEEEQEEQEEIyO   ..  .   . ",
"EEEQEQEQEEEQEQEEI^I^I^I^I^III!II!!I!!I!!III!II!II^IIIIII^I^III^^EEEEEEEEIQIQIQIQEEIQIQIQQIQIQEIQEEEEEEEEEEEEEEEEEEx*      .  .@<",
"EEEEEEEEEEEQEEEEI^IIII^III^II^I^IIIIIIIII!!II!^II^I^I^^III^II^IIEEEEEEEEQIQIQIQIIEQIQIQIIQIQQIQIEEEEEEEEEEEEEEEEIEEBy*O. O&6yjBZ",
"IEEEEEEEEEEIEEEEIIIII^III^IIIIII!II!I!IIIIIII^IIIIIIII^IIIIIIIIIEEEEEEEEIQIQIQIQQEEQQIIQQIEIIQIQEEIEEEEEEEEIEEEIEZEEECvhjvVZEEEE",
"IIEEEIEIIEIQEIEEI^IIIIIIIIII!IIIIIIIII!II!I!IIIIIIIIIIII^IIIIIIIEIIEIEIEIQIIIIIIIIIIIIIIIIIIIIIIIIEIIIIEIEIEEIEIEEEEIEEEEIEEEEEE",
"IEIIIEEEIEIEIEIEIIIIIIIIIIIIIIIIIIIIIIIIIIIIIIIIIIIIIIIIIIIIIIIIEIIIIEIIIIIIIIIIEIIIIIIIIIIIIIIIIEIIEZEEIIIIIIIIEZIIIIIIZEEZZETE",
"PIEIIIIIIIIIIIIIIIIIIIIIIIII^IIIIIIIQIIIIIIIIIIIIIIIIIIIIIIIIIIIIIIIIIIIIIIIIIIIIIIIIIIIIIIIIIIIIIIIEEZEIIIIIIIIZEIIIIIIEEZEEZEZ",
"PIIIIIIEIIIIIIIIIIIIIIIIIIIIIIIIIIIIIIIIIIIIIIIIIPIIIIIIIIIIIIIIIIIIIIIIIIIIIIIIIIIIIIIIIIPIIIIPIEIIEZEZIEIIIIIEEIIIIIIIZEZEEZZE",
"PTIIIIIZIIIIZIIIIIIIIIIIIIIIIIIIIIIIIIIIIIIIIIIIIPIIIIIIIIIIIIIIIIPIIIZIPPPIPIIPPIPPPPIIPIIIIIPPZZIZZIZEZZIZITPZZIZIZIZIZZEZZEZZ",
"ZTPPZEEZZIIIIEZIPPPPIPPPZIZIIPIPIPIPPIPPIIIPPIPIPPIPPIIPPPIPIPPIPPPPPIPIPPIPPPPPPPIPPPPPPPPPPPPPIZIZIIIZEZZZZZZIZZZZZZZZEZEZEZEZ",
"ZPPPIZZIZIZIZZIZPPPPPPPPIPIIPPPPZIZIPPPPIIPPPPPZPPPPPPPPPPPPZIZPPPPPPPPPPPPPPPPPPPPPPPPPPPPPPPPPIZZIZZPPZZZEZEZEZEZEZEZEZZZZZZZZ",
"ZIPPZPZZZZZZPPZZPPPPPPPPZZPZZZPPZIZPPPPPIZPZPZZZZPPZPPPPPPPPZIIPPPPPPZPPPPPPPPPPZPPPPPPZPPPPPZZZZZIZPPPZZTZZZZZZZEZZEZZZZEZZZZZI",
"ZZPPZPZZZIIZPPZIPZZZPZZPZPZPZPZZZZPZZZZZPPZPZPZPPZZZZZZZZPZZZZZZZZZPPZZZZZZPZPZZPPZZZPZZZZZZZPZZZZZZZZZZZZZZZZZZZZZZZCZZZZZZZZZZ",
"ZZZZZZZZZZZZZZZZZZZZZZZZZZZZZZZZZZZZZZZZZZZZZZZZZZZZZZZZZZZZZZZZZZZZZCZCZZPCZZZZZZZCZZZZZZVCZCCZZZZCZZZZZZZZZZZZCZZZZZZZZZZZZZZZ",
"CZZZZZZZZZZKZZZZZZZZZZZZZZZZZZZZZZZZZZZCZCZZZZZZZZZZZCZZZZZVCZCZZZCZZZZCZZCZCZZZZZZZCZCZZZZZZZZCCCZCZZCZZZZCZZCZCCCCCCZCVZZZZZZZ",
"CZZZZZCZZZCCCCZCCCCCCZZCCCZZCCCCCZCZCZZZZCCCCCZZCCCCCZCCZCZCCCCCCCCCCCCCZCCCCCZCCCCCCCZCZCZZCCZCCZCCCCCCZZCCCCZZCCCCZZCCZVVVCCCC",
"VCCZCZCCCZCCCCCCCCCCCCCCCCZCZCCCCCCCCCCCCCCCCCCCCCCCCCCCCCCCCCCVCCCCCCCCVCCCCCCCCCCCCCCCCCVZZCCCCCCCCCCCVZVCVCVCVCCCVZVZVZCCVCCC",
"CCCCVCCVCCVVCVCCCCCCCCCCCVCCCCCCCCVCCCCCVVCVCVCVVCVCCCVCZVZZVZZZCCVCCCVCVCCVCCCVCCCCCCCCVCCCCCCVCCCCCCCCCCCVCCCCCCCCVZVVZVCVCCVC",
"BCCCCCCVCCCCVZVZCVVCVCVCVCVCVVCVCVCVCVVCCVVCCCVCVCCVVCVCVZVVVVVVVVCCVVCCVCVCVCVVVVVCVVVCCCVVVCVVVVVCVVCVVVVCCVVCVVVVVCCVCVVVVVVC",
"BCVCVCVCVCCVVCVVVCCVVCCCCVCVVCVVVCVVVCVCCVVZCVCVCVCCVVVVVVVVVVVZVVCVCVVVCVCVVVVVVVVVCVVVVVVCVVVVCVVVVVVVVVVVVVVVVVCVVVVVVVCVCVVV",
"CVCBVCVVCVVVCVVCVVCVVCBVBCBCVVVVVVVVVVVVVCVVVBVVVVVVVVCVVVVVZVVVVCVVVVVVVVVVVVVVVVVVVVVVVVVVVVVVVVVVVVVVVVVVVVVVVVVVVVVVCVVVVVVV",
"BVVVVVVVVVVVVVVVVVCVVVVVVVVVVVVVVVVVVVVVVVVVVVVVVVVVVVVVVVVVVVVVVVVVVVVVVVVVVVVVVVVVVVVVVVVVVVVVVVVVVVVVVVVVVVVBVVVVVVNVVVVVVVVV",
"BVVVVVVVVNVVVVVVVVBVVBVVVVVVVVVVVVVVVVBVVNVVVVVBBVBBVVVVVVBVVVNVVVVVVVBVVVVVNVVVVVVVVVVNVVVNNVVVNVVNVVVVNVVVVBVVVVVVVBVVVBVVVVVB",
"BVVBVVBVVVVVNVVVVVVVBCBVVVBVBVVVVNVVBBNVVNVVNVVVVBVNNVVNNVVVNVVVVVNVBBNVVVNVVVVVVVNVVBNVVNVNVVNVVVVVVVNVVVVVVVVVBVBBNVNVNVVNNVBV",
"BBVBBBVBVNVNVVBVBBBBBBBBVNNVBVBBVVNVNVVVNVVNVNNVBBVNVVNVVVNNVNNVNNVNBNVVNNVNNVNNNBBNBNVVNVNVNVNVVNNVNNVNNVNNVNBBBBBVVNVNVNBNVNVN",
"BBBBVBBNVVVNBBBBVVNVBBBBNNVVNNVVBBBVBBVNVNNVNVBNBVNVNVNNNNBNNVNNNVBVNVBBVNVVNNNVBBBBBVNVVVNNVNNVNVNNNBBBNNVNVNNBBBBBNBBNNVNVNVNN",
"NBMBNBNVNNVNNVNBNNBBBBBVNVNNNVNNBBBBNBNVNVNNNNVBBVNNNVNVVNNVNNNVNNNVNNBNNVNNNVNVNNNVNNNNNNNNNNNNNNNVBBNBVNVNNNBNBBNBBNBNNNNVNNNV",
"MBBBBBBBNVNNBNBNNNBNBNNNNVNVNNNNNBNNNNVNNNNVNVNNNNNVNNNNVNNNNNNNNNNNBNNNNNNNNNNNNBNNBNNNNNNNNNNVNNNNNNNNNNNNNNNNNNNNNNNNNNNNNNNN",
"BBMBNNNMNNNNNNNNNNNNNNNNNNNNNNNVNNNNBNNNNNNNNNNNNNNNNNMNNNNNNNNNNNNNNNNNNNNNNNNNNNNNNNNNNNNNVNNNNNNNNNNNNNNNNNNMNNNNNNNNNNNNNNNN",
"MBNNNNNNNNNNNNNNNNNNNNNNNNNNNNNNNNNNNNNNNNNNNMNNNNNMNNNNNNNNNNNNNNMNNNNNNNMNNNNNNNNNNNNNNNMNMNNNNNNMNNNMNNNNMNNNNNNNNNNNNNMNNNNN",
"NMNNNMNNNNNMMNNMNNNNMNNNNMNNNNNNMNNNNNNNNNNNNNNNNNNNNNMNNNNNMNNNNMNNNNNMNNNMNMNMMMNMNNNMNMNNNNMNNNNNNMNNMNNNMNNNNMNMMNMNMNMMNNNM",
"'MBNNMNNNMNNNNNNNNNNMNNNMMMNNNNNNNMNMNNMMMNNNMNNNMNNMNNNNMNMNMMNMNNNMNMMMMNMMMMNNMMNMNMMMNMMMNNMMMMMMNMMNMMMNMMMMNMMMNMMMNNNNNM'",
"''MMMMNMMMMMMMMMMMMMMMMMMMMMMMMMMMMMMMMMMMMMMMMMMMMMMMMMMMMMMMMMMMMMMMMMMMMMMMMMMMMMMMMMMMMMMMNNMMMMMMMMMMMMMMMMMMMMMMMMMMMMMN''",
"''''''''''''''''''''''''''''''''''''''''''''''''''''''''''''''''''''''''''''''''''''''''''''''''''''''''''''''''''''''''''''''''",
"''''''''''''''''''''''''''''''''''''''''''''''''''''''''''''''''''''''''''''''''''''''''''''''''''''''''''''''''''''''''''''''''",
"''''''''''''''''''''''''''''''''''''''''''''''''''''''''''''''''''''''''''''''''''''''''''''''''''''''''''''''''''''''''''''''''",
"''''''''''''''''''''''''''''''''''''''''''''''''''''''''''''''''''''''''''''''''''''''''''''''''''''''''''''''''''''''''''''''''",
"''''''''''''''''''''''''''''''''''''''''''''''''''''''''''''''''''''''''''''''''''''''''''''''''''''''''''''''''''''''''''''''''",
"''''''''''''''''''''''''''''''''''''''''''''''''''''''''''''''''''''''''''''''''''''''''''''''''''''''''''''''''''''''''''''''''",
"''''''''''''''''''''''''''''''''''''''''''''''''''''''''''''''''''''''''''''''''''''''''''''''''''''''''''''''''''''''''''''''''",
"''''''''''''''''''''''''''''''''''''''''''''''''''''''''''''''''''''''''''''''''''''''''''''''''''''''''''''''''''''''''''''''''",
"''''''''''''''''''''''''''''''''''''''''''''''''''''''''''''''''''''''''''''''''''''''''''''''''''''''''''''''''''''''''''''''''",
"''''''''''''''''''''''''''''''''''''''''''''''''''''''''''''''''''''''''''''''''''''''''''''''''''''''''''''''''''''''''''''''''",
"''''''''''''''''''''''''''''''''''''''''''''''''''''''''''''''''''''''''''''''''''''''''''''''''''''''''''''''''''''''''''''''''",
"''''''''''''''''''''''''''''''''''''''''''''''''''''''''''''''''''''''''''''''''''''''''''''''''''''''''''''''''''''''''''''''''",
"''''''''''''''''''''''''''''''''''''''''''''''''''''''''''''''''''''''''''''''''''''''''''''''''''''''''''''''''''''''''''''''''",
"''''''''''''''''''''''''''''''''''''''''''''''''''''''''''''''''''''''''''''''''''''''''''''''''''''''''''''''''''''''''''''''''",
"''''''''''''''''''''''''''''''''''''''''''''''''''''''''''''''''''''''''''''''''''''''''''''''''''''''''''''''''''''''''''''''''",
"''''''''''''''''''''''''''''''''''''''''''''''''''''''''''''''''''''''''''''''''''''''''''''''''''''''''''''''''''''''''''''''''"
};
